<mxfile host="app.diagrams.net" agent="Mozilla/5.0 (Windows NT 10.0; Win64; x64) AppleWebKit/537.36 (KHTML, like Gecko) Chrome/137.0.0.0 Safari/537.36 Edg/137.0.0.0" version="27.1.6">
  <diagram name="第 1 页" id="qqDqN3thq60somkiSkHn">
    <mxGraphModel dx="1546" dy="892" grid="1" gridSize="10" guides="1" tooltips="1" connect="1" arrows="1" fold="1" page="1" pageScale="1" pageWidth="827" pageHeight="1169" math="0" shadow="0">
      <root>
        <mxCell id="0" />
        <mxCell id="1" parent="0" />
        <mxCell id="Wd5QwrPuI924RkZsZBoD-1" value="" style="rounded=0;whiteSpace=wrap;html=1;fontSize=15;fillColor=#f5f5f5;fontColor=#333333;strokeColor=#666666;opacity=30;" vertex="1" parent="1">
          <mxGeometry x="587.63" y="730" width="422.37" height="330" as="geometry" />
        </mxCell>
        <mxCell id="Wd5QwrPuI924RkZsZBoD-10" style="edgeStyle=orthogonalEdgeStyle;rounded=0;orthogonalLoop=1;jettySize=auto;html=1;entryX=0.5;entryY=0;entryDx=0;entryDy=0;exitX=0;exitY=0.5;exitDx=0;exitDy=0;exitPerimeter=0;" edge="1" parent="1" source="Wd5QwrPuI924RkZsZBoD-114">
          <mxGeometry relative="1" as="geometry">
            <Array as="points">
              <mxPoint x="673.63" y="879" />
              <mxPoint x="673.63" y="930" />
              <mxPoint x="837.63" y="930" />
            </Array>
            <mxPoint x="837.6300000000001" y="956.5" as="targetPoint" />
          </mxGeometry>
        </mxCell>
        <mxCell id="Wd5QwrPuI924RkZsZBoD-11" value="&lt;b&gt;隔离调度&lt;/b&gt;" style="text;html=1;align=center;verticalAlign=middle;whiteSpace=wrap;rounded=0;fontSize=15;" vertex="1" parent="1">
          <mxGeometry x="682.63" y="904" width="65" height="25" as="geometry" />
        </mxCell>
        <mxCell id="Wd5QwrPuI924RkZsZBoD-12" value="&lt;b&gt;攻击感知&lt;/b&gt;" style="text;html=1;align=center;verticalAlign=middle;whiteSpace=wrap;rounded=0;fontSize=15;" vertex="1" parent="1">
          <mxGeometry x="841.13" y="904" width="65" height="25" as="geometry" />
        </mxCell>
        <mxCell id="Wd5QwrPuI924RkZsZBoD-14" value="" style="sketch=0;points=[[0.015,0.015,0],[0.985,0.015,0],[0.985,0.985,0],[0.015,0.985,0],[0.25,0,0],[0.5,0,0],[0.75,0,0],[1,0.25,0],[1,0.5,0],[1,0.75,0],[0.75,1,0],[0.5,1,0],[0.25,1,0],[0,0.75,0],[0,0.5,0],[0,0.25,0]];verticalLabelPosition=bottom;html=1;verticalAlign=top;align=center;pointerEvents=1;shape=mxgraph.cisco19.rect;prIcon=nac_appliance;fillColor=none;strokeColor=#005073;fontSize=15;" vertex="1" parent="1">
          <mxGeometry x="603.63" y="753.61" width="64" height="50" as="geometry" />
        </mxCell>
        <mxCell id="Wd5QwrPuI924RkZsZBoD-15" value="&lt;b&gt;用户封禁&lt;/b&gt;" style="text;html=1;align=center;verticalAlign=middle;whiteSpace=wrap;rounded=0;fontSize=15;" vertex="1" parent="1">
          <mxGeometry x="603.63" y="803.61" width="65" height="25" as="geometry" />
        </mxCell>
        <mxCell id="Wd5QwrPuI924RkZsZBoD-16" value="威胁&lt;div&gt;评定&lt;/div&gt;" style="text;html=1;align=center;verticalAlign=middle;whiteSpace=wrap;rounded=0;fontSize=15;" vertex="1" parent="1">
          <mxGeometry x="668.63" y="811.5" width="60" height="30" as="geometry" />
        </mxCell>
        <mxCell id="Wd5QwrPuI924RkZsZBoD-17" value="洗牌信号" style="text;html=1;align=center;verticalAlign=middle;whiteSpace=wrap;rounded=0;fontSize=15;" vertex="1" parent="1">
          <mxGeometry x="614.13" y="862.5000000000001" width="44" height="30" as="geometry" />
        </mxCell>
        <mxCell id="Wd5QwrPuI924RkZsZBoD-18" value="" style="sketch=0;points=[[0.015,0.015,0],[0.985,0.015,0],[0.985,0.985,0],[0.015,0.985,0],[0.25,0,0],[0.5,0,0],[0.75,0,0],[1,0.25,0],[1,0.5,0],[1,0.75,0],[0.75,1,0],[0.5,1,0],[0.25,1,0],[0,0.75,0],[0,0.5,0],[0,0.25,0]];verticalLabelPosition=bottom;html=1;verticalAlign=top;align=center;pointerEvents=1;shape=mxgraph.cisco19.rect;prIcon=database_relational;fillColor=none;strokeColor=#005073;fontSize=15;" vertex="1" parent="1">
          <mxGeometry x="761.63" y="753.61" width="64" height="50" as="geometry" />
        </mxCell>
        <mxCell id="Wd5QwrPuI924RkZsZBoD-19" value="&lt;b&gt;数据库&lt;/b&gt;" style="text;html=1;align=center;verticalAlign=middle;whiteSpace=wrap;rounded=0;fontSize=15;" vertex="1" parent="1">
          <mxGeometry x="763.13" y="804.28" width="65" height="25" as="geometry" />
        </mxCell>
        <mxCell id="Wd5QwrPuI924RkZsZBoD-20" value="攻击&lt;div&gt;信号&lt;/div&gt;" style="text;html=1;align=center;verticalAlign=middle;whiteSpace=wrap;rounded=0;fontSize=15;" vertex="1" parent="1">
          <mxGeometry x="763.6299999999999" y="864" width="60" height="30" as="geometry" />
        </mxCell>
        <mxCell id="Wd5QwrPuI924RkZsZBoD-21" value="" style="points=[[0.03,0.03,0],[0.5,0,0],[0.97,0.03,0],[1,0.4,0],[0.97,0.745,0],[0.5,1,0],[0.03,0.745,0],[0,0.4,0]];verticalLabelPosition=bottom;sketch=0;html=1;verticalAlign=top;align=center;pointerEvents=1;shape=mxgraph.cisco19.stealthwatch_management_console_smc;fillColor=#005073;strokeColor=none;fontSize=15;" vertex="1" parent="1">
          <mxGeometry x="920.43" y="753.61" width="64" height="50" as="geometry" />
        </mxCell>
        <mxCell id="Wd5QwrPuI924RkZsZBoD-22" value="&lt;b&gt;管理模块&lt;/b&gt;" style="text;html=1;align=center;verticalAlign=middle;whiteSpace=wrap;rounded=0;fontSize=15;" vertex="1" parent="1">
          <mxGeometry x="920.43" y="804.28" width="65" height="25" as="geometry" />
        </mxCell>
        <mxCell id="Wd5QwrPuI924RkZsZBoD-23" value="系统&lt;div&gt;信息&lt;br&gt;&lt;/div&gt;" style="text;html=1;align=center;verticalAlign=middle;whiteSpace=wrap;rounded=0;fontSize=15;" vertex="1" parent="1">
          <mxGeometry x="844.6300000000001" y="751" width="60" height="30" as="geometry" />
        </mxCell>
        <mxCell id="Wd5QwrPuI924RkZsZBoD-28" value="" style="endArrow=classic;startArrow=none;html=1;rounded=0;entryX=0;entryY=0.25;entryDx=0;entryDy=0;entryPerimeter=0;fontSize=15;exitX=1;exitY=0.25;exitDx=0;exitDy=0;exitPerimeter=0;startFill=0;dashed=1;" edge="1" parent="1" source="Wd5QwrPuI924RkZsZBoD-14" target="Wd5QwrPuI924RkZsZBoD-18">
          <mxGeometry width="50" height="50" relative="1" as="geometry">
            <mxPoint x="673.63" y="664" as="sourcePoint" />
            <mxPoint x="723.63" y="614" as="targetPoint" />
          </mxGeometry>
        </mxCell>
        <mxCell id="Wd5QwrPuI924RkZsZBoD-29" value="" style="endArrow=classic;startArrow=classic;html=1;rounded=0;exitX=1;exitY=0.25;exitDx=0;exitDy=0;exitPerimeter=0;fontSize=15;entryX=0.002;entryY=0.252;entryDx=0;entryDy=0;entryPerimeter=0;" edge="1" parent="1" source="Wd5QwrPuI924RkZsZBoD-18" target="Wd5QwrPuI924RkZsZBoD-21">
          <mxGeometry width="50" height="50" relative="1" as="geometry">
            <mxPoint x="903.63" y="754" as="sourcePoint" />
            <mxPoint x="973.63" y="774" as="targetPoint" />
          </mxGeometry>
        </mxCell>
        <mxCell id="Wd5QwrPuI924RkZsZBoD-30" style="edgeStyle=orthogonalEdgeStyle;rounded=0;orthogonalLoop=1;jettySize=auto;html=1;entryX=1;entryY=0.5;entryDx=0;entryDy=0;entryPerimeter=0;" edge="1" parent="1" source="Wd5QwrPuI924RkZsZBoD-31" target="Wd5QwrPuI924RkZsZBoD-114">
          <mxGeometry relative="1" as="geometry">
            <mxPoint x="740.63" y="878.9949999999999" as="targetPoint" />
            <Array as="points">
              <mxPoint x="793.63" y="879" />
              <mxPoint x="793.63" y="879" />
            </Array>
          </mxGeometry>
        </mxCell>
        <mxCell id="Wd5QwrPuI924RkZsZBoD-31" value="" style="sketch=0;points=[[0.015,0.015,0],[0.985,0.015,0],[0.985,0.985,0],[0.015,0.985,0],[0.25,0,0],[0.5,0,0],[0.75,0,0],[1,0.25,0],[1,0.5,0],[1,0.75,0],[0.75,1,0],[0.5,1,0],[0.25,1,0],[0,0.75,0],[0,0.5,0],[0,0.25,0]];verticalLabelPosition=bottom;html=1;verticalAlign=top;align=center;pointerEvents=1;shape=mxgraph.cisco19.rect;prIcon=anomaly_detection;fillColor=none;strokeColor=#005073;fontSize=15;" vertex="1" parent="1">
          <mxGeometry x="841.63" y="854" width="64" height="50" as="geometry" />
        </mxCell>
        <mxCell id="Wd5QwrPuI924RkZsZBoD-69" style="edgeStyle=orthogonalEdgeStyle;rounded=0;orthogonalLoop=1;jettySize=auto;html=1;entryX=0.5;entryY=1;entryDx=0;entryDy=0;exitX=0;exitY=0.5;exitDx=0;exitDy=0;exitPerimeter=0;" edge="1" parent="1" source="Wd5QwrPuI924RkZsZBoD-114" target="Wd5QwrPuI924RkZsZBoD-15">
          <mxGeometry relative="1" as="geometry">
            <mxPoint x="673.63" y="880" as="sourcePoint" />
          </mxGeometry>
        </mxCell>
        <mxCell id="Wd5QwrPuI924RkZsZBoD-70" style="edgeStyle=orthogonalEdgeStyle;rounded=0;orthogonalLoop=1;jettySize=auto;html=1;entryX=0.25;entryY=0;entryDx=0;entryDy=0;entryPerimeter=0;exitX=1;exitY=0.75;exitDx=0;exitDy=0;exitPerimeter=0;" edge="1" parent="1" source="Wd5QwrPuI924RkZsZBoD-14" target="Wd5QwrPuI924RkZsZBoD-114">
          <mxGeometry relative="1" as="geometry">
            <mxPoint x="692.6300000000002" y="853.9949999999999" as="targetPoint" />
          </mxGeometry>
        </mxCell>
        <mxCell id="Wd5QwrPuI924RkZsZBoD-72" style="edgeStyle=orthogonalEdgeStyle;rounded=0;orthogonalLoop=1;jettySize=auto;html=1;entryX=1;entryY=0.75;entryDx=0;entryDy=0;entryPerimeter=0;exitX=0.25;exitY=0;exitDx=0;exitDy=0;exitPerimeter=0;dashed=1;" edge="1" parent="1" source="Wd5QwrPuI924RkZsZBoD-31" target="Wd5QwrPuI924RkZsZBoD-18">
          <mxGeometry relative="1" as="geometry" />
        </mxCell>
        <mxCell id="Wd5QwrPuI924RkZsZBoD-73" style="edgeStyle=orthogonalEdgeStyle;rounded=0;orthogonalLoop=1;jettySize=auto;html=1;entryX=0;entryY=0.75;entryDx=0;entryDy=0;entryPerimeter=0;exitX=0.75;exitY=0;exitDx=0;exitDy=0;exitPerimeter=0;dashed=1;" edge="1" parent="1" source="Wd5QwrPuI924RkZsZBoD-114" target="Wd5QwrPuI924RkZsZBoD-18">
          <mxGeometry relative="1" as="geometry">
            <mxPoint x="724.63" y="853.9949999999999" as="sourcePoint" />
          </mxGeometry>
        </mxCell>
        <mxCell id="Wd5QwrPuI924RkZsZBoD-100" value="" style="sketch=0;points=[[0.015,0.015,0],[0.985,0.015,0],[0.985,0.985,0],[0.015,0.985,0],[0.25,0,0],[0.5,0,0],[0.75,0,0],[1,0.25,0],[1,0.5,0],[1,0.75,0],[0.75,1,0],[0.5,1,0],[0.25,1,0],[0,0.75,0],[0,0.5,0],[0,0.25,0]];verticalLabelPosition=bottom;html=1;verticalAlign=top;aspect=fixed;align=center;pointerEvents=1;shape=mxgraph.cisco19.rect;prIcon=load_balancer;fillColor=none;strokeColor=#005073;dashed=1;" vertex="1" parent="1">
          <mxGeometry x="800" y="970" width="64" height="50" as="geometry" />
        </mxCell>
        <mxCell id="Wd5QwrPuI924RkZsZBoD-114" value="" style="sketch=0;points=[[0.015,0.015,0],[0.985,0.015,0],[0.985,0.985,0],[0.015,0.985,0],[0.25,0,0],[0.5,0,0],[0.75,0,0],[1,0.25,0],[1,0.5,0],[1,0.75,0],[0.75,1,0],[0.5,1,0],[0.25,1,0],[0,0.75,0],[0,0.5,0],[0,0.25,0]];verticalLabelPosition=bottom;html=1;verticalAlign=top;aspect=fixed;align=center;pointerEvents=1;shape=mxgraph.cisco19.rect;prIcon=video_gateway;fillColor=none;strokeColor=#005073;" vertex="1" parent="1">
          <mxGeometry x="682.63" y="854" width="64" height="50" as="geometry" />
        </mxCell>
        <mxCell id="Wd5QwrPuI924RkZsZBoD-124" value="&lt;b&gt;代理模块&lt;/b&gt;" style="text;html=1;align=center;verticalAlign=middle;whiteSpace=wrap;rounded=0;fontSize=15;" vertex="1" parent="1">
          <mxGeometry x="799" y="1020" width="65" height="25" as="geometry" />
        </mxCell>
        <mxCell id="Wd5QwrPuI924RkZsZBoD-128" style="edgeStyle=orthogonalEdgeStyle;rounded=0;orthogonalLoop=1;jettySize=auto;html=1;entryX=1;entryY=0.5;entryDx=0;entryDy=0;entryPerimeter=0;fillColor=#f8cecc;strokeColor=#b85450;exitX=1;exitY=0.75;exitDx=0;exitDy=0;exitPerimeter=0;" edge="1" parent="1" source="Wd5QwrPuI924RkZsZBoD-100" target="Wd5QwrPuI924RkZsZBoD-31">
          <mxGeometry relative="1" as="geometry">
            <Array as="points">
              <mxPoint x="864" y="1009" />
              <mxPoint x="1004" y="1009" />
              <mxPoint x="1004" y="879" />
            </Array>
            <mxPoint x="984.4299999999998" y="1009" as="sourcePoint" />
          </mxGeometry>
        </mxCell>
        <mxCell id="Wd5QwrPuI924RkZsZBoD-145" value="调节" style="text;html=1;align=center;verticalAlign=middle;whiteSpace=wrap;rounded=0;fontSize=15;" vertex="1" parent="1">
          <mxGeometry x="771.63" y="904.0000000000001" width="44" height="30" as="geometry" />
        </mxCell>
        <mxCell id="Wd5QwrPuI924RkZsZBoD-164" value="" style="points=[[0.35,0,0],[0.98,0.51,0],[1,0.71,0],[0.67,1,0],[0,0.795,0],[0,0.65,0]];verticalLabelPosition=bottom;sketch=0;html=1;verticalAlign=top;aspect=fixed;align=center;pointerEvents=1;shape=mxgraph.cisco19.user;fillColor=#005073;strokeColor=none;" vertex="1" parent="1">
          <mxGeometry x="640" y="970" width="50" height="50" as="geometry" />
        </mxCell>
        <mxCell id="Wd5QwrPuI924RkZsZBoD-165" style="edgeStyle=orthogonalEdgeStyle;rounded=0;orthogonalLoop=1;jettySize=auto;html=1;entryX=0;entryY=0.5;entryDx=0;entryDy=0;entryPerimeter=0;" edge="1" parent="1" source="Wd5QwrPuI924RkZsZBoD-164" target="Wd5QwrPuI924RkZsZBoD-100">
          <mxGeometry relative="1" as="geometry" />
        </mxCell>
        <mxCell id="Wd5QwrPuI924RkZsZBoD-166" value="&lt;b&gt;客户端&lt;/b&gt;" style="text;html=1;align=center;verticalAlign=middle;whiteSpace=wrap;rounded=0;fontSize=15;" vertex="1" parent="1">
          <mxGeometry x="632.5" y="1030" width="65" height="25" as="geometry" />
        </mxCell>
      </root>
    </mxGraphModel>
  </diagram>
</mxfile>
